<svg width="478" height="350" viewBox="0 0 478 350" fill="none" xmlns="http://www.w3.org/2000/svg">
<g filter="url(#filter0_b_31_3690)">
<g clip-path="url(#clip0_31_3690)">
<rect width="478" height="350" rx="36" fill="#E7E7E7" fill-opacity="0.6"/>
<g filter="url(#filter1_f_31_3690)">
<ellipse rx="155.896" ry="130.835" transform="matrix(0.213657 0.976909 -0.950115 0.311901 378.634 57.7154)" fill="#9EFFDC" fill-opacity="0.8"/>
</g>
<g filter="url(#filter2_f_31_3690)">
<ellipse rx="178.275" ry="149.617" transform="matrix(0.213657 0.976909 -0.950115 0.311901 413.492 295.948)" fill="#FFADE8" fill-opacity="0.8"/>
</g>
<g filter="url(#filter3_f_31_3690)">
<ellipse rx="181.669" ry="152.465" transform="matrix(0.213657 0.976909 -0.950115 0.311901 179.863 365.086)" fill="#FFEAB5" fill-opacity="0.8"/>
</g>
<rect x="34.1431" y="144.565" width="319.931" height="26.0071" fill="#4C4C4C"/>
<rect x="34.1431" y="181.718" width="133.305" height="11.1459" fill="#4C4C4C"/>
<rect x="34.1431" y="241.163" width="14.6128" height="63.1845" fill="#4C4C4C"/>
<rect x="145.2" y="241.163" width="14.6128" height="63.1845" fill="#4C4C4C"/>
<rect x="96.978" y="241.163" width="18.9967" height="63.1845" fill="#4C4C4C"/>
<rect x="208.036" y="241.163" width="18.9967" height="63.1845" fill="#4C4C4C"/>
<rect x="53.1396" y="241.163" width="7.30641" height="63.1845" fill="#4C4C4C"/>
<rect x="164.197" y="241.163" width="7.30641" height="63.1845" fill="#4C4C4C"/>
<rect x="64.8296" y="241.163" width="11.6903" height="63.1845" fill="#4C4C4C"/>
<rect x="175.887" y="241.163" width="11.6903" height="63.1845" fill="#4C4C4C"/>
<rect x="79.4429" y="241.163" width="5.84513" height="63.1846" fill="#4C4C4C"/>
<rect x="190.5" y="241.163" width="5.84511" height="63.1845" fill="#4C4C4C"/>
<rect x="134.972" y="241.163" width="5.84512" height="63.1846" fill="#4C4C4C"/>
<rect x="246.029" y="241.163" width="5.84512" height="63.1845" fill="#4C4C4C"/>
<rect x="88.2104" y="241.163" width="4.38384" height="63.1845" fill="#4C4C4C"/>
<rect x="199.268" y="241.163" width="4.38385" height="63.1845" fill="#4C4C4C"/>
<rect x="118.897" y="241.163" width="2.92257" height="63.1845" fill="#4C4C4C"/>
<rect x="229.955" y="241.163" width="2.92258" height="63.1846" fill="#4C4C4C"/>
<rect x="126.204" y="241.163" width="2.92257" height="63.1845" fill="#4C4C4C"/>
<rect x="237.261" y="241.163" width="2.92258" height="63.1845" fill="#4C4C4C"/>
<rect x="123.281" y="241.163" width="1.46129" height="63.1845" fill="#4C4C4C"/>
<rect x="234.338" y="241.163" width="1.46127" height="63.1845" fill="#4C4C4C"/>
<rect x="130.588" y="241.163" width="1.46127" height="63.1845" fill="#4C4C4C"/>
<rect x="241.645" y="241.163" width="1.46126" height="63.1846" fill="#4C4C4C"/>
</g>
</g>
<defs>
<filter id="filter0_b_31_3690" x="-4" y="-4" width="486" height="358" filterUnits="userSpaceOnUse" color-interpolation-filters="sRGB">
<feFlood flood-opacity="0" result="BackgroundImageFix"/>
<feGaussianBlur in="BackgroundImage" stdDeviation="2"/>
<feComposite in2="SourceAlpha" operator="in" result="effect1_backgroundBlur_31_3690"/>
<feBlend mode="normal" in="SourceGraphic" in2="effect1_backgroundBlur_31_3690" result="shape"/>
</filter>
<filter id="filter1_f_31_3690" x="109.908" y="-239.993" width="537.452" height="595.416" filterUnits="userSpaceOnUse" color-interpolation-filters="sRGB">
<feFlood flood-opacity="0" result="BackgroundImageFix"/>
<feBlend mode="normal" in="SourceGraphic" in2="BackgroundImageFix" result="shape"/>
<feGaussianBlur stdDeviation="70" result="effect1_foregroundBlur_31_3690"/>
</filter>
<filter id="filter2_f_31_3690" x="126.287" y="-24.3994" width="574.409" height="640.695" filterUnits="userSpaceOnUse" color-interpolation-filters="sRGB">
<feFlood flood-opacity="0" result="BackgroundImageFix"/>
<feBlend mode="normal" in="SourceGraphic" in2="BackgroundImageFix" result="shape"/>
<feGaussianBlur stdDeviation="70" result="effect1_foregroundBlur_31_3690"/>
</filter>
<filter id="filter3_f_31_3690" x="-110.143" y="41.3055" width="580.013" height="647.56" filterUnits="userSpaceOnUse" color-interpolation-filters="sRGB">
<feFlood flood-opacity="0" result="BackgroundImageFix"/>
<feBlend mode="normal" in="SourceGraphic" in2="BackgroundImageFix" result="shape"/>
<feGaussianBlur stdDeviation="70" result="effect1_foregroundBlur_31_3690"/>
</filter>
<clipPath id="clip0_31_3690">
<rect width="478" height="350" rx="36" fill="white"/>
</clipPath>
</defs>
</svg>
