<svg width="512" height="512" viewBox="0 0 512 512" fill="none" xmlns="http://www.w3.org/2000/svg">
<g clip-path="url(#clip0_31_3651)">
<rect width="512" height="512" fill="white"/>
<g filter="url(#filter0_bd_31_3651)">
<g clip-path="url(#clip1_31_3651)">
<rect x="327.07" y="46.2194" width="642.462" height="383.971" rx="36" transform="rotate(42.2696 327.07 46.2194)" fill="#8ED0FF" fill-opacity="0.6" shape-rendering="crispEdges"/>
<g filter="url(#filter1_f_31_3651)">
<ellipse cx="661.066" cy="435.374" rx="172.972" ry="172.973" transform="rotate(117.27 661.066 435.374)" fill="#9EFFDC" fill-opacity="0.8"/>
</g>
<g filter="url(#filter2_f_31_3651)">
<ellipse cx="519.943" cy="660.288" rx="197.803" ry="197.803" transform="rotate(117.27 519.943 660.288)" fill="#FFADE8" fill-opacity="0.8"/>
</g>
<g filter="url(#filter3_f_31_3651)">
<ellipse cx="236.562" cy="505.205" rx="201.568" ry="201.568" transform="rotate(117.27 236.562 505.205)" fill="#FFEAB5" fill-opacity="0.8"/>
</g>
</g>
</g>
<g filter="url(#filter4_bd_31_3651)">
<g clip-path="url(#clip2_31_3651)">
<rect x="421.977" y="30.3729" width="642.462" height="383.971" rx="36" transform="rotate(57.0422 421.977 30.3729)" fill="#FF9999" fill-opacity="0.6" shape-rendering="crispEdges"/>
<g filter="url(#filter5_f_31_3651)">
<ellipse cx="645.705" cy="491.828" rx="172.972" ry="172.973" transform="rotate(132.042 645.705 491.828)" fill="#9EFFDC" fill-opacity="0.8"/>
</g>
<g filter="url(#filter6_f_31_3651)">
<ellipse cx="451.897" cy="673.323" rx="197.803" ry="197.803" transform="rotate(132.042 451.897 673.323)" fill="#FFADE8" fill-opacity="0.8"/>
</g>
<g filter="url(#filter7_f_31_3651)">
<ellipse cx="217.427" cy="451.109" rx="201.568" ry="201.568" transform="rotate(132.042 217.427 451.109)" fill="#FFEAB5" fill-opacity="0.8"/>
</g>
</g>
</g>
<g filter="url(#filter8_bd_31_3651)">
<g clip-path="url(#clip3_31_3651)">
<rect x="512.462" y="43.3898" width="642.462" height="383.971" rx="36" transform="rotate(76.6617 512.462 43.3898)" fill="#E7E7E7" fill-opacity="0.6" shape-rendering="crispEdges"/>
<g filter="url(#filter9_f_31_3651)">
<circle cx="568.258" cy="553.176" r="172.972" transform="rotate(151.662 568.258 553.176)" fill="#9EFFDC" fill-opacity="0.8"/>
</g>
<g filter="url(#filter10_f_31_3651)">
<ellipse cx="324.761" cy="659.059" rx="197.803" ry="197.803" transform="rotate(151.662 324.761 659.059)" fill="#FFADE8" fill-opacity="0.8"/>
</g>
<g filter="url(#filter11_f_31_3651)">
<ellipse cx="178.516" cy="371.017" rx="201.568" ry="201.568" transform="rotate(151.662 178.516 371.017)" fill="#FFEAB5" fill-opacity="0.8"/>
</g>
<rect x="337.297" y="131.346" width="238.414" height="23.2833" transform="rotate(76.6617 337.297 131.346)" fill="#4C4C4C"/>
<rect x="304.933" y="139.02" width="99.339" height="9.97855" transform="rotate(76.6617 304.933 139.02)" fill="#4C4C4C"/>
<rect x="253.149" y="151.297" width="10.8895" height="56.567" transform="rotate(76.6617 253.149 151.297)" fill="#4C4C4C"/>
<rect x="272.242" y="231.825" width="10.8895" height="56.567" transform="rotate(76.6617 272.242 231.825)" fill="#4C4C4C"/>
<rect x="263.952" y="196.859" width="14.1564" height="56.567" transform="rotate(76.6617 263.952 196.859)" fill="#4C4C4C"/>
<rect x="283.045" y="277.387" width="14.1564" height="56.567" transform="rotate(76.6617 283.045 277.387)" fill="#4C4C4C"/>
<rect x="256.415" y="165.072" width="5.44476" height="56.567" transform="rotate(76.6617 256.415 165.072)" fill="#4C4C4C"/>
<rect x="275.508" y="245.6" width="5.44476" height="56.567" transform="rotate(76.6617 275.508 245.6)" fill="#4C4C4C"/>
<rect x="258.425" y="173.548" width="8.71161" height="56.567" transform="rotate(76.6617 258.425 173.548)" fill="#4C4C4C"/>
<rect x="277.518" y="254.076" width="8.71162" height="56.567" transform="rotate(76.6617 277.518 254.076)" fill="#4C4C4C"/>
<rect x="260.937" y="184.144" width="4.35581" height="56.5671" transform="rotate(76.6617 260.937 184.144)" fill="#4C4C4C"/>
<rect x="280.03" y="264.672" width="4.35579" height="56.567" transform="rotate(76.6617 280.03 264.672)" fill="#4C4C4C"/>
<rect x="270.483" y="224.408" width="4.3558" height="56.5671" transform="rotate(76.6617 270.483 224.408)" fill="#4C4C4C"/>
<rect x="289.577" y="304.936" width="4.3558" height="56.567" transform="rotate(76.6617 289.577 304.936)" fill="#4C4C4C"/>
<rect x="262.445" y="190.502" width="3.26685" height="56.567" transform="rotate(76.6617 262.445 190.502)" fill="#4C4C4C"/>
<rect x="281.538" y="271.029" width="3.26685" height="56.567" transform="rotate(76.6617 281.538 271.029)" fill="#4C4C4C"/>
<rect x="267.72" y="212.753" width="2.17791" height="56.567" transform="rotate(76.6617 267.72 212.753)" fill="#4C4C4C"/>
<rect x="286.813" y="293.281" width="2.17792" height="56.5671" transform="rotate(76.6617 286.813 293.281)" fill="#4C4C4C"/>
<rect x="268.977" y="218.051" width="2.1779" height="56.567" transform="rotate(76.6617 268.977 218.051)" fill="#4C4C4C"/>
<rect x="288.069" y="298.578" width="2.17792" height="56.567" transform="rotate(76.6617 288.069 298.578)" fill="#4C4C4C"/>
<rect x="268.474" y="215.931" width="1.08896" height="56.567" transform="rotate(76.6617 268.474 215.931)" fill="#4C4C4C"/>
<rect x="287.567" y="296.459" width="1.08894" height="56.567" transform="rotate(76.6617 287.567 296.459)" fill="#4C4C4C"/>
<rect x="269.73" y="221.23" width="1.08895" height="56.567" transform="rotate(76.6617 269.73 221.23)" fill="#4C4C4C"/>
<rect x="288.823" y="301.757" width="1.08894" height="56.5671" transform="rotate(76.6617 288.823 301.757)" fill="#4C4C4C"/>
</g>
<rect x="512.091" y="43.9917" width="641.462" height="382.971" rx="35.5" transform="rotate(76.6617 512.091 43.9917)" stroke="white" shape-rendering="crispEdges"/>
</g>
</g>
<defs>
<filter id="filter0_bd_31_3651" x="32.8032" y="18.2194" width="805.681" height="788.267" filterUnits="userSpaceOnUse" color-interpolation-filters="sRGB">
<feFlood flood-opacity="0" result="BackgroundImageFix"/>
<feGaussianBlur in="BackgroundImage" stdDeviation="2"/>
<feComposite in2="SourceAlpha" operator="in" result="effect1_backgroundBlur_31_3651"/>
<feColorMatrix in="SourceAlpha" type="matrix" values="0 0 0 0 0 0 0 0 0 0 0 0 0 0 0 0 0 0 127 0" result="hardAlpha"/>
<feOffset dy="8"/>
<feGaussianBlur stdDeviation="18"/>
<feComposite in2="hardAlpha" operator="out"/>
<feColorMatrix type="matrix" values="0 0 0 0 0 0 0 0 0 0 0 0 0 0 0 0 0 0 0.08 0"/>
<feBlend mode="normal" in2="effect1_backgroundBlur_31_3651" result="effect2_dropShadow_31_3651"/>
<feBlend mode="normal" in="SourceGraphic" in2="effect2_dropShadow_31_3651" result="shape"/>
</filter>
<filter id="filter1_f_31_3651" x="448.058" y="222.366" width="426.018" height="426.017" filterUnits="userSpaceOnUse" color-interpolation-filters="sRGB">
<feFlood flood-opacity="0" result="BackgroundImageFix"/>
<feBlend mode="normal" in="SourceGraphic" in2="BackgroundImageFix" result="shape"/>
<feGaussianBlur stdDeviation="20" result="effect1_foregroundBlur_31_3651"/>
</filter>
<filter id="filter2_f_31_3651" x="282.099" y="422.444" width="475.688" height="475.689" filterUnits="userSpaceOnUse" color-interpolation-filters="sRGB">
<feFlood flood-opacity="0" result="BackgroundImageFix"/>
<feBlend mode="normal" in="SourceGraphic" in2="BackgroundImageFix" result="shape"/>
<feGaussianBlur stdDeviation="20" result="effect1_foregroundBlur_31_3651"/>
</filter>
<filter id="filter3_f_31_3651" x="-105.049" y="163.595" width="683.221" height="683.221" filterUnits="userSpaceOnUse" color-interpolation-filters="sRGB">
<feFlood flood-opacity="0" result="BackgroundImageFix"/>
<feBlend mode="normal" in="SourceGraphic" in2="BackgroundImageFix" result="shape"/>
<feGaussianBlur stdDeviation="70" result="effect1_foregroundBlur_31_3651"/>
</filter>
<filter id="filter4_bd_31_3651" x="63.7974" y="2.37288" width="743.692" height="819.96" filterUnits="userSpaceOnUse" color-interpolation-filters="sRGB">
<feFlood flood-opacity="0" result="BackgroundImageFix"/>
<feGaussianBlur in="BackgroundImage" stdDeviation="2"/>
<feComposite in2="SourceAlpha" operator="in" result="effect1_backgroundBlur_31_3651"/>
<feColorMatrix in="SourceAlpha" type="matrix" values="0 0 0 0 0 0 0 0 0 0 0 0 0 0 0 0 0 0 127 0" result="hardAlpha"/>
<feOffset dy="8"/>
<feGaussianBlur stdDeviation="18"/>
<feComposite in2="hardAlpha" operator="out"/>
<feColorMatrix type="matrix" values="0 0 0 0 0 0 0 0 0 0 0 0 0 0 0 0 0 0 0.08 0"/>
<feBlend mode="normal" in2="effect1_backgroundBlur_31_3651" result="effect2_dropShadow_31_3651"/>
<feBlend mode="normal" in="SourceGraphic" in2="effect2_dropShadow_31_3651" result="shape"/>
</filter>
<filter id="filter5_f_31_3651" x="432.731" y="278.854" width="425.948" height="425.948" filterUnits="userSpaceOnUse" color-interpolation-filters="sRGB">
<feFlood flood-opacity="0" result="BackgroundImageFix"/>
<feBlend mode="normal" in="SourceGraphic" in2="BackgroundImageFix" result="shape"/>
<feGaussianBlur stdDeviation="20" result="effect1_foregroundBlur_31_3651"/>
</filter>
<filter id="filter6_f_31_3651" x="214.093" y="435.518" width="475.609" height="475.609" filterUnits="userSpaceOnUse" color-interpolation-filters="sRGB">
<feFlood flood-opacity="0" result="BackgroundImageFix"/>
<feBlend mode="normal" in="SourceGraphic" in2="BackgroundImageFix" result="shape"/>
<feGaussianBlur stdDeviation="20" result="effect1_foregroundBlur_31_3651"/>
</filter>
<filter id="filter7_f_31_3651" x="-124.143" y="109.539" width="683.14" height="683.14" filterUnits="userSpaceOnUse" color-interpolation-filters="sRGB">
<feFlood flood-opacity="0" result="BackgroundImageFix"/>
<feBlend mode="normal" in="SourceGraphic" in2="BackgroundImageFix" result="shape"/>
<feGaussianBlur stdDeviation="70" result="effect1_foregroundBlur_31_3651"/>
</filter>
<filter id="filter8_bd_31_3651" x="102.848" y="15.3898" width="593.83" height="785.714" filterUnits="userSpaceOnUse" color-interpolation-filters="sRGB">
<feFlood flood-opacity="0" result="BackgroundImageFix"/>
<feGaussianBlur in="BackgroundImage" stdDeviation="2"/>
<feComposite in2="SourceAlpha" operator="in" result="effect1_backgroundBlur_31_3651"/>
<feColorMatrix in="SourceAlpha" type="matrix" values="0 0 0 0 0 0 0 0 0 0 0 0 0 0 0 0 0 0 127 0" result="hardAlpha"/>
<feOffset dy="8"/>
<feGaussianBlur stdDeviation="18"/>
<feComposite in2="hardAlpha" operator="out"/>
<feColorMatrix type="matrix" values="0 0 0 0 0 0 0 0 0 0 0 0 0 0 0 0 0 0 0.08 0"/>
<feBlend mode="normal" in2="effect1_backgroundBlur_31_3651" result="effect2_dropShadow_31_3651"/>
<feBlend mode="normal" in="SourceGraphic" in2="effect2_dropShadow_31_3651" result="shape"/>
</filter>
<filter id="filter9_f_31_3651" x="255.252" y="240.17" width="626.012" height="626.012" filterUnits="userSpaceOnUse" color-interpolation-filters="sRGB">
<feFlood flood-opacity="0" result="BackgroundImageFix"/>
<feBlend mode="normal" in="SourceGraphic" in2="BackgroundImageFix" result="shape"/>
<feGaussianBlur stdDeviation="70" result="effect1_foregroundBlur_31_3651"/>
</filter>
<filter id="filter10_f_31_3651" x="-13.0806" y="321.218" width="675.683" height="675.682" filterUnits="userSpaceOnUse" color-interpolation-filters="sRGB">
<feFlood flood-opacity="0" result="BackgroundImageFix"/>
<feBlend mode="normal" in="SourceGraphic" in2="BackgroundImageFix" result="shape"/>
<feGaussianBlur stdDeviation="70" result="effect1_foregroundBlur_31_3651"/>
</filter>
<filter id="filter11_f_31_3651" x="-163.091" y="29.4098" width="683.214" height="683.214" filterUnits="userSpaceOnUse" color-interpolation-filters="sRGB">
<feFlood flood-opacity="0" result="BackgroundImageFix"/>
<feBlend mode="normal" in="SourceGraphic" in2="BackgroundImageFix" result="shape"/>
<feGaussianBlur stdDeviation="70" result="effect1_foregroundBlur_31_3651"/>
</filter>
<clipPath id="clip0_31_3651">
<rect width="512" height="512" fill="white"/>
</clipPath>
<clipPath id="clip1_31_3651">
<rect x="327.07" y="46.2194" width="642.462" height="383.971" rx="36" transform="rotate(42.2696 327.07 46.2194)" fill="white"/>
</clipPath>
<clipPath id="clip2_31_3651">
<rect x="421.977" y="30.3729" width="642.462" height="383.971" rx="36" transform="rotate(57.0422 421.977 30.3729)" fill="white"/>
</clipPath>
<clipPath id="clip3_31_3651">
<rect x="512.462" y="43.3898" width="642.462" height="383.971" rx="36" transform="rotate(76.6617 512.462 43.3898)" fill="white"/>
</clipPath>
</defs>
</svg>
