<svg xmlns="http://www.w3.org/2000/svg" viewBox="0 0 343 192" style="background-color: black;">
	<style>
		rect {
			fill: white;
		}
	</style>
	<filter id="blur" width="160%" height="160%" x="-30%" y="-30%">
		<!-- insert a neutral background color to prevent the backdrop showing
			through blurred regions with alpa < 1 -->
		<feFlood flood-color="#4d4d4d" result="neutral"/>
		<feGaussianBlur in="SourceGraphic" stdDeviation="20" result="blurred" />
		<feMerge>
		<feMergeNode in="neutral" />
		<feMergeNode in="blurred" />
		</feMerge>
	</filter>
	<clipPath id="cp1">
		<circle r="93.118" transform="matrix(0.247349 0.968927 -0.962652 0.270742 350.091 112.823)"/>
	</clipPath>
	<clipPath id="cp2">
		<circle r="93.118" transform="matrix(0.247349 0.968927 -0.962652 0.270742 288.673 167.739)"/>
	</clipPath>

	<circle r="93.118" transform="matrix(0.247349 0.968927 -0.962652 0.270742 326.87 75.4354)" fill="#ffffff4d"/>

	<g clip-path="url(#cp1)">
		<g filter="url(#blur)">
			<circle r="93.118" transform="matrix(0.247349 0.968927 -0.962652 0.270742 	326.87 75.4354)" fill="#ffffff4d"/>
		</g>
	</g>

	<g clip-path="url(#cp2)">
		<g filter="url(#blur)">
			<g clip-path="url(#cp1)">
				<g filter="url(#blur)">
					<circle r="93.118" transform="matrix(0.247349 0.968927 -0.962652 0.270742 	326.87 75.4354)" fill="#ffffff4d"/>
				</g>
			</g>
			<circle r="93.118" transform="matrix(0.247349 0.968927 -0.962652 0.270742 	326.87 75.4354)" fill="#ffffff4d"/>
		</g>
	</g>

	<g transform="translate(25 121)">
		<rect width="7.24832" height="37.4839"/>
		<rect x="55.0874" width="7.24832" height="37.4839"/>
		<rect x="31.168" width="9.42282" height="37.4839"/>
		<rect x="86.2549" width="9.42282" height="37.4839"/>
		<rect x="9.42285" width="3.62416" height="37.4839"/>
		<rect x="64.5103" width="3.62416" height="37.4839"/>
		<rect x="15.2217" width="5.79866" height="37.4839"/>
		<rect x="70.3086" width="5.79866" height="37.4839"/>
		<rect x="22.4697" width="2.89933" height="37.4839"/>
		<rect x="77.5571" width="2.89933" height="37.4839"/>
		<rect x="50.0137" width="2.89933" height="37.4839"/>
		<rect x="105.101" width="2.89933" height="37.4839"/>
		<rect x="26.8188" width="2.1745" height="37.4839"/>
		<rect x="81.9062" width="2.1745" height="37.4839"/>
		<rect x="42.04" width="1.44966" height="37.4839"/>
		<rect x="97.1274" width="1.44966" height="37.4839"/>
		<rect x="45.6646" width="1.44966" height="37.4839"/>
		<rect x="100.751" width="1.44966" height="37.4839"/>
		<rect x="44.2148" width="0.724832" height="37.4839"/>
		<rect x="99.3022" width="0.724832" height="37.4839"/>
		<rect x="47.8389" width="0.724832" height="37.4839"/>
		<rect x="102.926" width="0.724832" height="37.4839"/>
	</g>
</svg>