<svg width="108" height="38" viewBox="0 0 108 38" fill="none" xmlns="http://www.w3.org/2000/svg">
<rect width="7.24832" height="37.4839" fill="white"/>
<rect x="55.0874" width="7.24832" height="37.4839" fill="white"/>
<rect x="31.168" width="9.42282" height="37.4839" fill="white"/>
<rect x="86.2549" width="9.42282" height="37.4839" fill="white"/>
<rect x="9.42285" width="3.62416" height="37.4839" fill="white"/>
<rect x="64.5103" width="3.62416" height="37.4839" fill="white"/>
<rect x="15.2217" width="5.79866" height="37.4839" fill="white"/>
<rect x="70.3086" width="5.79866" height="37.4839" fill="white"/>
<rect x="22.4697" width="2.89933" height="37.4839" fill="white"/>
<rect x="77.5571" width="2.89933" height="37.4839" fill="white"/>
<rect x="50.0137" width="2.89933" height="37.4839" fill="white"/>
<rect x="105.101" width="2.89933" height="37.4839" fill="white"/>
<rect x="26.8188" width="2.1745" height="37.4839" fill="white"/>
<rect x="81.9062" width="2.1745" height="37.4839" fill="white"/>
<rect x="42.04" width="1.44966" height="37.4839" fill="white"/>
<rect x="97.1274" width="1.44966" height="37.4839" fill="white"/>
<rect x="45.6646" width="1.44966" height="37.4839" fill="white"/>
<rect x="100.751" width="1.44966" height="37.4839" fill="white"/>
<rect x="44.2148" width="0.724832" height="37.4839" fill="white"/>
<rect x="99.3022" width="0.724832" height="37.4839" fill="white"/>
<rect x="47.8389" width="0.724832" height="37.4839" fill="white"/>
<rect x="102.926" width="0.724832" height="37.4839" fill="white"/>
</svg>
