<svg width="28" height="28" viewBox="0 0 28 28" fill="none" xmlns="http://www.w3.org/2000/svg">
<rect width="28" height="28" rx="14" fill="#4D94FF"/>
<path d="M15 19L18 19" stroke="white" stroke-width="2" stroke-linecap="round" stroke-linejoin="round"/>
<path d="M16.8849 9.36289C17.1173 9.13054 17.4324 9 17.761 9C17.9237 9 18.0848 9.03205 18.2351 9.09431C18.3855 9.15658 18.5221 9.24784 18.6371 9.36289C18.7522 9.47794 18.8434 9.61453 18.9057 9.76485C18.968 9.91517 19 10.0763 19 10.239C19 10.4017 18.968 10.5628 18.9057 10.7131C18.8434 10.8635 18.7522 11 18.6371 11.1151L11.3363 18.4159L9 19L9.58407 16.6637L16.8849 9.36289Z" stroke="white" stroke-width="2" stroke-linecap="round" stroke-linejoin="round"/>
</svg>
