<svg width="28" height="24" viewBox="0 0 28 24" fill="none" xmlns="http://www.w3.org/2000/svg">
<path d="M24.6665 2.66667H20.4398L17.9998 0H9.99984L7.55984 2.66667H3.33317C1.8665 2.66667 0.666504 3.86667 0.666504 5.33333V21.3333C0.666504 22.8 1.8665 24 3.33317 24H24.6665C26.1332 24 27.3332 22.8 27.3332 21.3333V5.33333C27.3332 3.86667 26.1332 2.66667 24.6665 2.66667ZM13.9998 20C10.3198 20 7.33317 17.0133 7.33317 13.3333H4.6665L7.99984 10L11.3332 13.3333H8.6665C8.6665 16.28 11.0532 18.6667 13.9998 18.6667C14.7732 18.6667 15.5065 18.4933 16.1598 18.2L17.1465 19.1867C16.1998 19.68 15.1465 20 13.9998 20ZM19.9998 16.6667L16.6665 13.3333H19.3332C19.3332 10.3867 16.9465 8 13.9998 8C13.2265 8 12.4932 8.17333 11.8398 8.46667L10.8532 7.49333C11.7998 6.98667 12.8532 6.66667 13.9998 6.66667C17.6798 6.66667 20.6665 9.65333 20.6665 13.3333H23.3332L19.9998 16.6667Z" fill="white"/>
</svg>
