<svg width="30" height="30" viewBox="0 0 30 30" fill="none" xmlns="http://www.w3.org/2000/svg">
<rect width="30" height="30" rx="15" fill="black"/>
<path d="M9.1665 9.75H12.6665C13.2853 9.75 13.8788 9.99583 14.3164 10.4334C14.754 10.871 14.9998 11.4645 14.9998 12.0833V20.25C14.9998 19.7859 14.8155 19.3408 14.4873 19.0126C14.1591 18.6844 13.714 18.5 13.2498 18.5H9.1665V9.75Z" stroke="white" stroke-linecap="round" stroke-linejoin="round"/>
<path d="M20.8333 9.75H17.3333C16.7145 9.75 16.121 9.99583 15.6834 10.4334C15.2458 10.871 15 11.4645 15 12.0833V20.25C15 19.7859 15.1844 19.3408 15.5126 19.0126C15.8408 18.6844 16.2859 18.5 16.75 18.5H20.8333V9.75Z" stroke="white" stroke-linecap="round" stroke-linejoin="round"/>
</svg>
