<svg width="30" height="30" viewBox="0 0 30 30" fill="none" xmlns="http://www.w3.org/2000/svg">
<rect width="30" height="30" rx="15" fill="black"/>
<path d="M21.1893 17.8874C21.3773 17.4437 21.4523 16.9603 21.4078 16.4804C21.3633 16.0006 21.2006 15.5393 20.9342 15.1377C20.6678 14.7361 20.3061 14.4068 19.8813 14.1792C19.4566 13.9515 18.9821 13.8327 18.5002 13.8333H17.7652C17.527 12.8955 17.0034 12.055 16.2666 11.428C15.5298 10.8009 14.6164 10.4184 13.6527 10.3333M10.9168 10.9166C10.0057 11.4204 9.28921 12.2144 8.88133 13.1723C8.47346 14.1302 8.39761 15.197 8.66587 16.2029C8.93413 17.2089 9.53109 18.0963 10.3618 18.7239C11.1925 19.3515 12.2092 19.6834 13.2502 19.6666H18.5002C18.8384 19.6662 19.1739 19.607 19.4918 19.4916" stroke="white" stroke-linecap="round" stroke-linejoin="round"/>
<path d="M8.5835 8.58325L21.4168 21.4166" stroke="white" stroke-linecap="round" stroke-linejoin="round"/>
</svg>
