<svg width="294" height="218" viewBox="0 0 294 218" fill="none" xmlns="http://www.w3.org/2000/svg">
	<filter id="blur" width="200%" height="200%" x="-50%" y="-50%">
		<feFlood flood-color="#fff" result="neutral"/>
		<feGaussianBlur in="SourceGraphic" stdDeviation="2" result="blurred" />
		<feMerge>
		<feMergeNode in="neutral" />
		<feMergeNode in="blurred" />
		</feMerge>
	</filter>
	<filter id="shadow" width="160%" height="160%" x="-30%" y="-30%">
		<feDropShadow dx="0" dy="8" stdDeviation="20" flood-color="#000" flood-opacity="0.25"/>
	</filter>

	<circle cx="145.5" cy="93.5" r="90.5" stroke="#EDEDED" stroke-width="2" />

	<g clip-path="url(#clip0_31_5079)">
		<circle filter="url(#blur)" cx="145.5" cy="93.5" r="90.5" stroke="#EDEDED" stroke-width="2" />
	</g>

	<g filter="url(#shadow)" clip-path="url(#clip0_31_5079)">
		<rect x="36" y="28" width="217.59" height="130.044" rx="12" fill="#E7E7E7" fill-opacity="0.6"
			shape-rendering="crispEdges" />
		<g filter="url(#filter1_f_31_5079)">
			<circle cx="234.725" cy="52.7249" r="67.5446" transform="rotate(75 234.725 52.7249)" fill="#9EFFDC"
				fill-opacity="0.8" />
		</g>
		<g filter="url(#filter2_f_31_5079)">
			<circle cx="253.02" cy="154.782" r="77.2407" transform="rotate(75 253.02 154.782)" fill="#FFADE8"
				fill-opacity="0.8" />
		</g>
		<g filter="url(#filter3_f_31_5079)">
			<circle cx="130.401" cy="184.401" r="78.7109" transform="rotate(75 130.401 184.401)" fill="#FFEAB5"
				fill-opacity="0.8" />
		</g>
		<rect x="51.2993" y="92.5972" width="80.7464" height="7.88563" fill="#4C4C4C" />
		<rect x="51.2993" y="103.862" width="33.6443" height="3.37955" fill="#4C4C4C" />
		<rect x="51.2993" y="121.887" width="3.68808" height="19.1582" fill="#4C4C4C" />
		<rect x="79.3286" y="121.887" width="3.68808" height="19.1582" fill="#4C4C4C" />
		<rect x="67.1582" y="121.887" width="4.7945" height="19.1582" fill="#4C4C4C" />
		<rect x="95.1875" y="121.887" width="4.7945" height="19.1582" fill="#4C4C4C" />
		<rect x="56.0938" y="121.887" width="1.84404" height="19.1582" fill="#4C4C4C" />
		<rect x="84.123" y="121.887" width="1.84404" height="19.1582" fill="#4C4C4C" />
		<rect x="59.0444" y="121.887" width="2.95046" height="19.1582" fill="#4C4C4C" />
		<rect x="87.0737" y="121.887" width="2.95047" height="19.1582" fill="#4C4C4C" />
		<rect x="62.7324" y="121.887" width="1.47523" height="19.1582" fill="#4C4C4C" />
		<rect x="90.7617" y="121.887" width="1.47523" height="19.1582" fill="#4C4C4C" />
		<rect x="76.7471" y="121.887" width="1.47523" height="19.1582" fill="#4C4C4C" />
		<rect x="104.776" y="121.887" width="1.47523" height="19.1582" fill="#4C4C4C" />
		<rect x="64.9453" y="121.887" width="1.10642" height="19.1582" fill="#4C4C4C" />
		<rect x="92.9746" y="121.887" width="1.10642" height="19.1582" fill="#4C4C4C" />
		<rect x="72.6899" y="121.887" width="0.737616" height="19.1582" fill="#4C4C4C" />
		<rect x="100.72" y="121.887" width="0.737617" height="19.1582" fill="#4C4C4C" />
		<rect x="74.5342" y="121.887" width="0.737616" height="19.1582" fill="#4C4C4C" />
		<rect x="102.563" y="121.887" width="0.737617" height="19.1582" fill="#4C4C4C" />
		<rect x="73.7964" y="121.887" width="0.368809" height="19.1582" fill="#4C4C4C" />
		<rect x="101.826" y="121.887" width="0.368805" height="19.1582" fill="#4C4C4C" />
		<rect x="75.6406" y="121.887" width="0.368807" height="19.1582" fill="#4C4C4C" />
		<rect x="103.67" y="121.887" width="0.368809" height="19.1582" fill="#4C4C4C" />
	</g>

	<clipPath id="cp1">
		<path d="M231 186C231 186 278 162.6 278 127.5V86.55L231 69L184 86.55V127.5C184 162.6 231 186 231 186Z" shape-rendering="crispEdges" />
	</clipPath>

	<g clip-path="url(#cp1)">
		<g filter="url(#blur)">
			<circle cx="145.5" cy="93.5" r="90.5" stroke="#EDEDED" stroke-width="2" />
			<g clip-path="url(#clip0_31_5079)">
				<circle filter="url(#blur)" cx="145.5" cy="93.5" r="90.5" stroke="#EDEDED" stroke-width="2" />
			</g>

			<g filter="url(#shadow)" clip-path="url(#clip0_31_5079)">
				<rect x="36" y="28" width="217.59" height="130.044" rx="12" fill="#E7E7E7" fill-opacity="0.6"
					shape-rendering="crispEdges" />
				<g filter="url(#filter1_f_31_5079)">
					<circle cx="234.725" cy="52.7249" r="67.5446" transform="rotate(75 234.725 52.7249)" fill="#9EFFDC"
						fill-opacity="0.8" />
				</g>
				<g filter="url(#filter2_f_31_5079)">
					<circle cx="253.02" cy="154.782" r="77.2407" transform="rotate(75 253.02 154.782)" fill="#FFADE8"
						fill-opacity="0.8" />
				</g>
				<g filter="url(#filter3_f_31_5079)">
					<circle cx="130.401" cy="184.401" r="78.7109" transform="rotate(75 130.401 184.401)" fill="#FFEAB5"
						fill-opacity="0.8" />
				</g>
				<rect x="51.2993" y="92.5972" width="80.7464" height="7.88563" fill="#4C4C4C" />
				<rect x="51.2993" y="103.862" width="33.6443" height="3.37955" fill="#4C4C4C" />
				<rect x="51.2993" y="121.887" width="3.68808" height="19.1582" fill="#4C4C4C" />
				<rect x="79.3286" y="121.887" width="3.68808" height="19.1582" fill="#4C4C4C" />
				<rect x="67.1582" y="121.887" width="4.7945" height="19.1582" fill="#4C4C4C" />
				<rect x="95.1875" y="121.887" width="4.7945" height="19.1582" fill="#4C4C4C" />
				<rect x="56.0938" y="121.887" width="1.84404" height="19.1582" fill="#4C4C4C" />
				<rect x="84.123" y="121.887" width="1.84404" height="19.1582" fill="#4C4C4C" />
				<rect x="59.0444" y="121.887" width="2.95046" height="19.1582" fill="#4C4C4C" />
				<rect x="87.0737" y="121.887" width="2.95047" height="19.1582" fill="#4C4C4C" />
				<rect x="62.7324" y="121.887" width="1.47523" height="19.1582" fill="#4C4C4C" />
				<rect x="90.7617" y="121.887" width="1.47523" height="19.1582" fill="#4C4C4C" />
				<rect x="76.7471" y="121.887" width="1.47523" height="19.1582" fill="#4C4C4C" />
				<rect x="104.776" y="121.887" width="1.47523" height="19.1582" fill="#4C4C4C" />
				<rect x="64.9453" y="121.887" width="1.10642" height="19.1582" fill="#4C4C4C" />
				<rect x="92.9746" y="121.887" width="1.10642" height="19.1582" fill="#4C4C4C" />
				<rect x="72.6899" y="121.887" width="0.737616" height="19.1582" fill="#4C4C4C" />
				<rect x="100.72" y="121.887" width="0.737617" height="19.1582" fill="#4C4C4C" />
				<rect x="74.5342" y="121.887" width="0.737616" height="19.1582" fill="#4C4C4C" />
				<rect x="102.563" y="121.887" width="0.737617" height="19.1582" fill="#4C4C4C" />
				<rect x="73.7964" y="121.887" width="0.368809" height="19.1582" fill="#4C4C4C" />
				<rect x="101.826" y="121.887" width="0.368805" height="19.1582" fill="#4C4C4C" />
				<rect x="75.6406" y="121.887" width="0.368807" height="19.1582" fill="#4C4C4C" />
				<rect x="103.67" y="121.887" width="0.368809" height="19.1582" fill="#4C4C4C" />
			</g>
		</g>
	</g>

	<path filter="url(#shadow)" d="M231 186C231 186 278 162.6 278 127.5V86.55L231 69L184 86.55V127.5C184 162.6 231 186 231 186Z"
		fill="#4D94FF" fill-opacity="0.6" shape-rendering="crispEdges" />

	<path
		d="M253 122.696V124.745C252.997 129.547 251.442 134.219 248.567 138.065C245.692 141.911 241.651 144.725 237.046 146.086C232.441 147.448 227.519 147.284 223.015 145.62C218.511 143.956 214.665 140.88 212.051 136.852C209.438 132.824 208.196 128.058 208.512 123.267C208.828 118.475 210.684 113.914 213.804 110.264C216.924 106.614 221.141 104.07 225.824 103.011C230.508 101.953 235.409 102.437 239.795 104.392"
		stroke="white" stroke-opacity="0.8" stroke-width="6" stroke-linecap="round" stroke-linejoin="round" />
	<path d="M253 106.93L230.732 129.221L224.052 122.54" stroke="white" stroke-opacity="0.8" stroke-width="6"
		stroke-linecap="round" stroke-linejoin="round" />
	
	<clipPath id="cp2">
		<circle cx="79.5" cy="31.5" r="15.5" shape-rendering="crispEdges" />
	</clipPath>

	<g clip-path="url(#cp2)">
		<g filter="url(#blur)">
			<circle cx="145.5" cy="93.5" r="90.5" stroke="#EDEDED" stroke-width="2" />

			<g clip-path="url(#clip0_31_5079)">
				<circle filter="url(#blur)" cx="145.5" cy="93.5" r="90.5" stroke="#EDEDED" stroke-width="2" />
			</g>

			<g filter="url(#shadow)" clip-path="url(#clip0_31_5079)">
				<rect x="36" y="28" width="217.59" height="130.044" rx="12" fill="#E7E7E7" fill-opacity="0.6"
					shape-rendering="crispEdges" />
				<g filter="url(#filter1_f_31_5079)">
					<circle cx="234.725" cy="52.7249" r="67.5446" transform="rotate(75 234.725 52.7249)" fill="#9EFFDC"
						fill-opacity="0.8" />
				</g>
				<g filter="url(#filter2_f_31_5079)">
					<circle cx="253.02" cy="154.782" r="77.2407" transform="rotate(75 253.02 154.782)" fill="#FFADE8"
						fill-opacity="0.8" />
				</g>
				<g filter="url(#filter3_f_31_5079)">
					<circle cx="130.401" cy="184.401" r="78.7109" transform="rotate(75 130.401 184.401)" fill="#FFEAB5"
						fill-opacity="0.8" />
				</g>
				<rect x="51.2993" y="92.5972" width="80.7464" height="7.88563" fill="#4C4C4C" />
				<rect x="51.2993" y="103.862" width="33.6443" height="3.37955" fill="#4C4C4C" />
				<rect x="51.2993" y="121.887" width="3.68808" height="19.1582" fill="#4C4C4C" />
				<rect x="79.3286" y="121.887" width="3.68808" height="19.1582" fill="#4C4C4C" />
				<rect x="67.1582" y="121.887" width="4.7945" height="19.1582" fill="#4C4C4C" />
				<rect x="95.1875" y="121.887" width="4.7945" height="19.1582" fill="#4C4C4C" />
				<rect x="56.0938" y="121.887" width="1.84404" height="19.1582" fill="#4C4C4C" />
				<rect x="84.123" y="121.887" width="1.84404" height="19.1582" fill="#4C4C4C" />
				<rect x="59.0444" y="121.887" width="2.95046" height="19.1582" fill="#4C4C4C" />
				<rect x="87.0737" y="121.887" width="2.95047" height="19.1582" fill="#4C4C4C" />
				<rect x="62.7324" y="121.887" width="1.47523" height="19.1582" fill="#4C4C4C" />
				<rect x="90.7617" y="121.887" width="1.47523" height="19.1582" fill="#4C4C4C" />
				<rect x="76.7471" y="121.887" width="1.47523" height="19.1582" fill="#4C4C4C" />
				<rect x="104.776" y="121.887" width="1.47523" height="19.1582" fill="#4C4C4C" />
				<rect x="64.9453" y="121.887" width="1.10642" height="19.1582" fill="#4C4C4C" />
				<rect x="92.9746" y="121.887" width="1.10642" height="19.1582" fill="#4C4C4C" />
				<rect x="72.6899" y="121.887" width="0.737616" height="19.1582" fill="#4C4C4C" />
				<rect x="100.72" y="121.887" width="0.737617" height="19.1582" fill="#4C4C4C" />
				<rect x="74.5342" y="121.887" width="0.737616" height="19.1582" fill="#4C4C4C" />
				<rect x="102.563" y="121.887" width="0.737617" height="19.1582" fill="#4C4C4C" />
				<rect x="73.7964" y="121.887" width="0.368809" height="19.1582" fill="#4C4C4C" />
				<rect x="101.826" y="121.887" width="0.368805" height="19.1582" fill="#4C4C4C" />
				<rect x="75.6406" y="121.887" width="0.368807" height="19.1582" fill="#4C4C4C" />
				<rect x="103.67" y="121.887" width="0.368809" height="19.1582" fill="#4C4C4C" />
			</g>
		</g>
	</g>

	<circle cx="79.5" cy="31.5" r="15.5" fill="#4D94FF" fill-opacity="0.4" shape-rendering="crispEdges" />



	<circle cx="268.5" cy="66.5" r="6.5" fill="#4D94FF" fill-opacity="0.4" shape-rendering="crispEdges" />
	<circle cx="105" cy="189" r="5" fill="#4D94FF" fill-opacity="0.4" shape-rendering="crispEdges" />
	<defs>
		<filter id="filter0_bd_31_5079" x="0" y="0" width="289.59" height="202.044" filterUnits="userSpaceOnUse"
			color-interpolation-filters="sRGB">
			<feFlood flood-opacity="0" result="BackgroundImageFix" />
			<feGaussianBlur in="BackgroundImage" stdDeviation="2" />
			<feComposite in2="SourceAlpha" operator="in" result="effect1_backgroundBlur_31_5079" />
			<feColorMatrix in="SourceAlpha" type="matrix" values="0 0 0 0 0 0 0 0 0 0 0 0 0 0 0 0 0 0 127 0"
				result="hardAlpha" />
			<feOffset dy="8" />
			<feGaussianBlur stdDeviation="18" />
			<feComposite in2="hardAlpha" operator="out" />
			<feColorMatrix type="matrix" values="0 0 0 0 0 0 0 0 0 0 0 0 0 0 0 0 0 0 0.08 0" />
			<feBlend mode="normal" in2="effect1_backgroundBlur_31_5079" result="effect2_dropShadow_31_5079" />
			<feBlend mode="normal" in="SourceGraphic" in2="effect2_dropShadow_31_5079" result="shape" />
		</filter>
		<filter id="filter1_f_31_5079" x="87.1631" y="-94.8364" width="295.123" height="295.123"
			filterUnits="userSpaceOnUse" color-interpolation-filters="sRGB">
			<feFlood flood-opacity="0" result="BackgroundImageFix" />
			<feBlend mode="normal" in="SourceGraphic" in2="BackgroundImageFix" result="shape" />
			<feGaussianBlur stdDeviation="40" result="effect1_foregroundBlur_31_5079" />
		</filter>
		<filter id="filter2_f_31_5079" x="95.7598" y="-2.47729" width="314.52" height="314.52"
			filterUnits="userSpaceOnUse" color-interpolation-filters="sRGB">
			<feFlood flood-opacity="0" result="BackgroundImageFix" />
			<feBlend mode="normal" in="SourceGraphic" in2="BackgroundImageFix" result="shape" />
			<feGaussianBlur stdDeviation="40" result="effect1_foregroundBlur_31_5079" />
		</filter>
		<filter id="filter3_f_31_5079" x="-28.3301" y="25.6704" width="317.461" height="317.461"
			filterUnits="userSpaceOnUse" color-interpolation-filters="sRGB">
			<feFlood flood-opacity="0" result="BackgroundImageFix" />
			<feBlend mode="normal" in="SourceGraphic" in2="BackgroundImageFix" result="shape" />
			<feGaussianBlur stdDeviation="40" result="effect1_foregroundBlur_31_5079" />
		</filter>
		<filter id="filter4_bd_31_5079" x="168" y="61" width="126" height="149" filterUnits="userSpaceOnUse"
			color-interpolation-filters="sRGB">
			<feFlood flood-opacity="0" result="BackgroundImageFix" />
			<feGaussianBlur in="BackgroundImage" stdDeviation="2" />
			<feComposite in2="SourceAlpha" operator="in" result="effect1_backgroundBlur_31_5079" />
			<feColorMatrix in="SourceAlpha" type="matrix" values="0 0 0 0 0 0 0 0 0 0 0 0 0 0 0 0 0 0 127 0"
				result="hardAlpha" />
			<feOffset dy="8" />
			<feGaussianBlur stdDeviation="8" />
			<feComposite in2="hardAlpha" operator="out" />
			<feColorMatrix type="matrix" values="0 0 0 0 0 0 0 0 0 0 0 0 0 0 0 0 0 0 0.08 0" />
			<feBlend mode="normal" in2="effect1_backgroundBlur_31_5079" result="effect2_dropShadow_31_5079" />
			<feBlend mode="normal" in="SourceGraphic" in2="effect2_dropShadow_31_5079" result="shape" />
		</filter>
		<filter id="filter5_b_31_5079" x="185.464" y="79.4639" width="90.5361" height="90.5361"
			filterUnits="userSpaceOnUse" color-interpolation-filters="sRGB">
			<feFlood flood-opacity="0" result="BackgroundImageFix" />
			<feGaussianBlur in="BackgroundImage" stdDeviation="10" />
			<feComposite in2="SourceAlpha" operator="in" result="effect1_backgroundBlur_31_5079" />
			<feBlend mode="normal" in="SourceGraphic" in2="effect1_backgroundBlur_31_5079" result="shape" />
		</filter>
		<filter id="filter6_bd_31_5079" x="48" y="8" width="63" height="63" filterUnits="userSpaceOnUse"
			color-interpolation-filters="sRGB">
			<feFlood flood-opacity="0" result="BackgroundImageFix" />
			<feGaussianBlur in="BackgroundImage" stdDeviation="2" />
			<feComposite in2="SourceAlpha" operator="in" result="effect1_backgroundBlur_31_5079" />
			<feColorMatrix in="SourceAlpha" type="matrix" values="0 0 0 0 0 0 0 0 0 0 0 0 0 0 0 0 0 0 127 0"
				result="hardAlpha" />
			<feOffset dy="8" />
			<feGaussianBlur stdDeviation="8" />
			<feComposite in2="hardAlpha" operator="out" />
			<feColorMatrix type="matrix" values="0 0 0 0 0 0 0 0 0 0 0 0 0 0 0 0 0 0 0.08 0" />
			<feBlend mode="normal" in2="effect1_backgroundBlur_31_5079" result="effect2_dropShadow_31_5079" />
			<feBlend mode="normal" in="SourceGraphic" in2="effect2_dropShadow_31_5079" result="shape" />
		</filter>
		<filter id="filter7_bd_31_5079" x="246" y="52" width="45" height="45" filterUnits="userSpaceOnUse"
			color-interpolation-filters="sRGB">
			<feFlood flood-opacity="0" result="BackgroundImageFix" />
			<feGaussianBlur in="BackgroundImage" stdDeviation="2" />
			<feComposite in2="SourceAlpha" operator="in" result="effect1_backgroundBlur_31_5079" />
			<feColorMatrix in="SourceAlpha" type="matrix" values="0 0 0 0 0 0 0 0 0 0 0 0 0 0 0 0 0 0 127 0"
				result="hardAlpha" />
			<feOffset dy="8" />
			<feGaussianBlur stdDeviation="8" />
			<feComposite in2="hardAlpha" operator="out" />
			<feColorMatrix type="matrix" values="0 0 0 0 0 0 0 0 0 0 0 0 0 0 0 0 0 0 0.08 0" />
			<feBlend mode="normal" in2="effect1_backgroundBlur_31_5079" result="effect2_dropShadow_31_5079" />
			<feBlend mode="normal" in="SourceGraphic" in2="effect2_dropShadow_31_5079" result="shape" />
		</filter>
		<filter id="filter8_bd_31_5079" x="84" y="176" width="42" height="42" filterUnits="userSpaceOnUse"
			color-interpolation-filters="sRGB">
			<feFlood flood-opacity="0" result="BackgroundImageFix" />
			<feGaussianBlur in="BackgroundImage" stdDeviation="2" />
			<feComposite in2="SourceAlpha" operator="in" result="effect1_backgroundBlur_31_5079" />
			<feColorMatrix in="SourceAlpha" type="matrix" values="0 0 0 0 0 0 0 0 0 0 0 0 0 0 0 0 0 0 127 0"
				result="hardAlpha" />
			<feOffset dy="8" />
			<feGaussianBlur stdDeviation="8" />
			<feComposite in2="hardAlpha" operator="out" />
			<feColorMatrix type="matrix" values="0 0 0 0 0 0 0 0 0 0 0 0 0 0 0 0 0 0 0.08 0" />
			<feBlend mode="normal" in2="effect1_backgroundBlur_31_5079" result="effect2_dropShadow_31_5079" />
			<feBlend mode="normal" in="SourceGraphic" in2="effect2_dropShadow_31_5079" result="shape" />
		</filter>
		<clipPath id="clip0_31_5079">
			<rect x="36" y="28" width="217.59" height="130.044" rx="12" fill="white" />
		</clipPath>
	</defs>
</svg>